<svg width="51" height="39" viewBox="0 0 51 39" fill="none" xmlns="http://www.w3.org/2000/svg">
<path d="M12.7148 38.4453C10.6367 38.4453 8.80469 37.9805 7.21875 37.0508C5.63281 36.1029 4.30208 34.7904 3.22656 33.1133C2.16927 31.418 1.36719 29.3945 0.820312 27.043C0.273438 24.6914 0 22.1029 0 19.2773C0 17.7826 0.11849 16.2695 0.355469 14.7383C0.610677 13.1888 0.97526 11.7031 1.44922 10.2812C1.92318 8.84115 2.51562 7.5013 3.22656 6.26172C3.95573 5.00391 4.78516 3.91927 5.71484 3.00781C6.66276 2.07812 7.72005 1.34896 8.88672 0.820312C10.0534 0.273438 11.3294 0 12.7148 0C14.1003 0 15.3672 0.264323 16.5156 0.792969C17.6823 1.32161 18.7214 2.05078 19.6328 2.98047C20.5443 3.91016 21.3372 5.00391 22.0117 6.26172C22.7044 7.5013 23.2695 8.84115 23.707 10.2812C24.1628 11.7031 24.5 13.1888 24.7188 14.7383C24.9557 16.2695 25.0742 17.7917 25.0742 19.3047C25.0742 22.1302 24.819 24.7188 24.3086 27.0703C23.7982 29.4219 23.0234 31.4453 21.9844 33.1406C20.9635 34.8177 19.6784 36.1211 18.1289 37.0508C16.5977 37.9805 14.793 38.4453 12.7148 38.4453ZM6.45312 19.3047C6.45312 20.7266 6.48047 22.1393 6.53516 23.543C6.58984 24.9284 6.69922 26.2591 6.86328 27.5352C7.02734 28.793 7.24609 29.9596 7.51953 31.0352C7.8112 32.1107 8.1849 33.0404 8.64062 33.8242C9.11458 34.6081 9.67969 35.2279 10.3359 35.6836C11.0104 36.1211 11.8034 36.3398 12.7148 36.3398C13.6263 36.3398 14.4102 36.112 15.0664 35.6562C15.7227 35.2005 16.2695 34.5807 16.707 33.7969C17.1445 32.9948 17.4909 32.0469 17.7461 30.9531C18.0013 29.8594 18.1927 28.6836 18.3203 27.4258C18.4479 26.1497 18.5299 24.819 18.5664 23.4336C18.6029 22.0482 18.6211 20.6536 18.6211 19.25C18.6211 18.1016 18.5846 16.8802 18.5117 15.5859C18.457 14.2734 18.3477 12.9883 18.1836 11.7305C18.0378 10.4544 17.8281 9.24219 17.5547 8.09375C17.2812 6.92708 16.9258 5.90625 16.4883 5.03125C16.0508 4.13802 15.5221 3.42708 14.9023 2.89844C14.2826 2.36979 13.5625 2.10547 12.7422 2.10547C11.8307 2.10547 11.0378 2.36979 10.3633 2.89844C9.6888 3.42708 9.11458 4.13802 8.64062 5.03125C8.1849 5.92448 7.8112 6.95443 7.51953 8.12109C7.22786 9.28776 7 10.5091 6.83594 11.7852C6.6901 13.0612 6.58984 14.3464 6.53516 15.6406C6.48047 16.9349 6.45312 18.1562 6.45312 19.3047ZM33.6602 37.7344C33.0951 37.7344 32.7396 37.6706 32.5938 37.543C32.4479 37.4154 32.375 37.2695 32.375 37.1055V35.6562C32.375 35.5104 32.4388 35.3737 32.5664 35.2461C32.7122 35.1185 33.0495 35.0456 33.5781 35.0273C33.9609 35.0273 34.4167 35.0273 34.9453 35.0273C35.4922 35.0091 36.0299 34.9909 36.5586 34.9727C37.0872 34.9362 37.5612 34.8815 37.9805 34.8086C38.418 34.7174 38.7188 34.599 38.8828 34.4531V6.80859C38.2812 7.20964 37.7617 7.54688 37.3242 7.82031C36.9049 8.09375 36.5039 8.33984 36.1211 8.55859C35.7383 8.75911 35.3555 8.95964 34.9727 9.16016C34.5898 9.36068 34.1341 9.59766 33.6055 9.87109C33.5143 9.92578 33.3503 10.0078 33.1133 10.1172C32.8763 10.2083 32.6849 10.2539 32.5391 10.2539C32.375 10.2539 32.2383 10.1628 32.1289 9.98047C32.0378 9.77995 31.8555 9.47005 31.582 9.05078C31.5638 9.01432 31.5547 8.96875 31.5547 8.91406C31.5547 8.84115 31.6003 8.77734 31.6914 8.72266C31.7826 8.64974 31.9466 8.53125 32.1836 8.36719C32.7305 8.02083 33.3594 7.55599 34.0703 6.97266C34.7812 6.38932 35.5286 5.73307 36.3125 5.00391C37.1146 4.27474 37.9258 3.49089 38.7461 2.65234C39.5664 1.79557 40.3503 0.920573 41.0977 0.0273438H43.1758C43.5221 0.0273438 43.7956 0.0455729 43.9961 0.0820312C44.2148 0.10026 44.3789 0.145833 44.4883 0.21875C44.5977 0.273438 44.6615 0.355469 44.6797 0.464844C44.7161 0.574219 44.7344 0.720052 44.7344 0.902344V32.2109C44.7344 32.4661 44.7344 32.7305 44.7344 33.0039C44.7526 33.2591 44.7617 33.4961 44.7617 33.7148C44.7799 33.9336 44.7982 34.1159 44.8164 34.2617C44.8529 34.4076 44.8893 34.4805 44.9258 34.4805C45.1445 34.6263 45.4089 34.7357 45.7188 34.8086C46.0469 34.8815 46.3932 34.9362 46.7578 34.9727C47.1406 34.9909 47.5326 35.0091 47.9336 35.0273C48.3529 35.0273 48.763 35.0273 49.1641 35.0273C49.7292 35.0273 50.0846 35.1003 50.2305 35.2461C50.3763 35.3919 50.4492 35.5286 50.4492 35.6562V37.1055C50.4492 37.2331 50.3763 37.3698 50.2305 37.5156C50.0846 37.6615 49.7292 37.7344 49.1641 37.7344H33.6602Z" fill="#F0F1F3"/>
</svg>
