<svg width="55" height="39" viewBox="0 0 55 39" fill="none" xmlns="http://www.w3.org/2000/svg">
<path d="M12.7148 38.4453C10.6367 38.4453 8.80469 37.9805 7.21875 37.0508C5.63281 36.1029 4.30208 34.7904 3.22656 33.1133C2.16927 31.418 1.36719 29.3945 0.820312 27.043C0.273438 24.6914 0 22.1029 0 19.2773C0 17.7826 0.11849 16.2695 0.355469 14.7383C0.610677 13.1888 0.97526 11.7031 1.44922 10.2812C1.92318 8.84115 2.51562 7.5013 3.22656 6.26172C3.95573 5.00391 4.78516 3.91927 5.71484 3.00781C6.66276 2.07812 7.72005 1.34896 8.88672 0.820312C10.0534 0.273438 11.3294 0 12.7148 0C14.1003 0 15.3672 0.264323 16.5156 0.792969C17.6823 1.32161 18.7214 2.05078 19.6328 2.98047C20.5443 3.91016 21.3372 5.00391 22.0117 6.26172C22.7044 7.5013 23.2695 8.84115 23.707 10.2812C24.1628 11.7031 24.5 13.1888 24.7188 14.7383C24.9557 16.2695 25.0742 17.7917 25.0742 19.3047C25.0742 22.1302 24.819 24.7188 24.3086 27.0703C23.7982 29.4219 23.0234 31.4453 21.9844 33.1406C20.9635 34.8177 19.6784 36.1211 18.1289 37.0508C16.5977 37.9805 14.793 38.4453 12.7148 38.4453ZM6.45312 19.3047C6.45312 20.7266 6.48047 22.1393 6.53516 23.543C6.58984 24.9284 6.69922 26.2591 6.86328 27.5352C7.02734 28.793 7.24609 29.9596 7.51953 31.0352C7.8112 32.1107 8.1849 33.0404 8.64062 33.8242C9.11458 34.6081 9.67969 35.2279 10.3359 35.6836C11.0104 36.1211 11.8034 36.3398 12.7148 36.3398C13.6263 36.3398 14.4102 36.112 15.0664 35.6562C15.7227 35.2005 16.2695 34.5807 16.707 33.7969C17.1445 32.9948 17.4909 32.0469 17.7461 30.9531C18.0013 29.8594 18.1927 28.6836 18.3203 27.4258C18.4479 26.1497 18.5299 24.819 18.5664 23.4336C18.6029 22.0482 18.6211 20.6536 18.6211 19.25C18.6211 18.1016 18.5846 16.8802 18.5117 15.5859C18.457 14.2734 18.3477 12.9883 18.1836 11.7305C18.0378 10.4544 17.8281 9.24219 17.5547 8.09375C17.2812 6.92708 16.9258 5.90625 16.4883 5.03125C16.0508 4.13802 15.5221 3.42708 14.9023 2.89844C14.2826 2.36979 13.5625 2.10547 12.7422 2.10547C11.8307 2.10547 11.0378 2.36979 10.3633 2.89844C9.6888 3.42708 9.11458 4.13802 8.64062 5.03125C8.1849 5.92448 7.8112 6.95443 7.51953 8.12109C7.22786 9.28776 7 10.5091 6.83594 11.7852C6.6901 13.0612 6.58984 14.3464 6.53516 15.6406C6.48047 16.9349 6.45312 18.1562 6.45312 19.3047ZM29.6406 37.7344C29.3307 37.7344 29.0938 37.7253 28.9297 37.707C28.7839 37.6888 28.6654 37.6432 28.5742 37.5703C28.5013 37.4974 28.4557 37.388 28.4375 37.2422C28.4375 37.0964 28.4375 36.8958 28.4375 36.6406C28.4375 36.3307 28.5469 36.0299 28.7656 35.7383C28.9844 35.4466 29.2487 35.1185 29.5586 34.7539C30.4336 33.7148 31.3815 32.6758 32.4023 31.6367C33.4232 30.5977 34.4531 29.5586 35.4922 28.5195C36.8776 27.1341 38.2083 25.7396 39.4844 24.3359C40.7604 22.9323 41.8815 21.5378 42.8477 20.1523C43.832 18.7669 44.6068 17.3997 45.1719 16.0508C45.7552 14.6836 46.0469 13.3438 46.0469 12.0312C46.0469 11.0469 45.8646 10.0807 45.5 9.13281C45.1536 8.16667 44.6797 7.3099 44.0781 6.5625C43.4766 5.8151 42.7747 5.21354 41.9727 4.75781C41.1888 4.30208 40.3594 4.07422 39.4844 4.07422C38.5365 4.07422 37.6432 4.25651 36.8047 4.62109C35.9844 4.98568 35.237 5.47786 34.5625 6.09766C33.888 6.69922 33.3138 7.40104 32.8398 8.20312C32.3841 8.98698 32.056 9.79818 31.8555 10.6367C31.8008 10.8372 31.7552 11.0286 31.7188 11.2109C31.6823 11.375 31.6185 11.5208 31.5273 11.6484C31.4362 11.7578 31.2904 11.849 31.0898 11.9219C30.8893 11.9948 30.6159 12.0312 30.2695 12.0312H30.0234C29.7682 12.0312 29.5677 12.0039 29.4219 11.9492C29.2943 11.8763 29.2305 11.7122 29.2305 11.457C29.2305 11.3659 29.2669 11.0286 29.3398 10.4453C29.431 9.86198 29.5768 9.1875 29.7773 8.42188C29.9961 7.65625 30.2786 6.8724 30.625 6.07031C30.9896 5.25 31.4453 4.56641 31.9922 4.01953H31.9648C32.7122 3.25391 33.4414 2.61589 34.1523 2.10547C34.8815 1.59505 35.6107 1.1849 36.3398 0.875C37.0872 0.565104 37.8438 0.346354 38.6094 0.21875C39.3932 0.0729167 40.2227 0 41.0977 0C42.8659 0 44.4701 0.282552 45.9102 0.847656C47.3685 1.41276 48.6081 2.19661 49.6289 3.19922C50.668 4.18359 51.4609 5.35026 52.0078 6.69922C52.5729 8.04818 52.8555 9.50651 52.8555 11.0742C52.8555 12.2044 52.6003 13.3346 52.0898 14.4648C51.5794 15.5768 50.8594 16.7161 49.9297 17.8828C49.0182 19.0495 47.9154 20.2435 46.6211 21.4648C45.3451 22.668 43.9323 23.9349 42.3828 25.2656C42.2188 25.3932 41.9544 25.6302 41.5898 25.9766C41.2253 26.3229 40.7969 26.7331 40.3047 27.207C39.8307 27.6628 39.3203 28.1641 38.7734 28.7109C38.2266 29.2396 37.6979 29.7591 37.1875 30.2695C36.6953 30.7799 36.2396 31.2539 35.8203 31.6914C35.401 32.1289 35.082 32.4844 34.8633 32.7578H49.7109C50.112 32.7578 50.4401 32.7031 50.6953 32.5938C50.9505 32.4661 51.1693 32.2565 51.3516 31.9648C51.5521 31.6549 51.7344 31.2448 51.8984 30.7344C52.0625 30.224 52.2448 29.5859 52.4453 28.8203H54.2227L52.9648 36.5312C52.9102 36.7865 52.7552 37.0508 52.5 37.3242C52.2448 37.5977 51.7982 37.7344 51.1602 37.7344H29.6406Z" fill="#F0F1F3"/>
</svg>
