<svg width="54" height="39" viewBox="0 0 54 39" fill="none" xmlns="http://www.w3.org/2000/svg">
<path d="M12.7148 38.4453C10.6367 38.4453 8.80469 37.9805 7.21875 37.0508C5.63281 36.1029 4.30208 34.7904 3.22656 33.1133C2.16927 31.418 1.36719 29.3945 0.820312 27.043C0.273438 24.6914 0 22.1029 0 19.2773C0 17.7826 0.11849 16.2695 0.355469 14.7383C0.610677 13.1888 0.97526 11.7031 1.44922 10.2812C1.92318 8.84115 2.51562 7.5013 3.22656 6.26172C3.95573 5.00391 4.78516 3.91927 5.71484 3.00781C6.66276 2.07812 7.72005 1.34896 8.88672 0.820312C10.0534 0.273438 11.3294 0 12.7148 0C14.1003 0 15.3672 0.264323 16.5156 0.792969C17.6823 1.32161 18.7214 2.05078 19.6328 2.98047C20.5443 3.91016 21.3372 5.00391 22.0117 6.26172C22.7044 7.5013 23.2695 8.84115 23.707 10.2812C24.1628 11.7031 24.5 13.1888 24.7188 14.7383C24.9557 16.2695 25.0742 17.7917 25.0742 19.3047C25.0742 22.1302 24.819 24.7188 24.3086 27.0703C23.7982 29.4219 23.0234 31.4453 21.9844 33.1406C20.9635 34.8177 19.6784 36.1211 18.1289 37.0508C16.5977 37.9805 14.793 38.4453 12.7148 38.4453ZM6.45312 19.3047C6.45312 20.7266 6.48047 22.1393 6.53516 23.543C6.58984 24.9284 6.69922 26.2591 6.86328 27.5352C7.02734 28.793 7.24609 29.9596 7.51953 31.0352C7.8112 32.1107 8.1849 33.0404 8.64062 33.8242C9.11458 34.6081 9.67969 35.2279 10.3359 35.6836C11.0104 36.1211 11.8034 36.3398 12.7148 36.3398C13.6263 36.3398 14.4102 36.112 15.0664 35.6562C15.7227 35.2005 16.2695 34.5807 16.707 33.7969C17.1445 32.9948 17.4909 32.0469 17.7461 30.9531C18.0013 29.8594 18.1927 28.6836 18.3203 27.4258C18.4479 26.1497 18.5299 24.819 18.5664 23.4336C18.6029 22.0482 18.6211 20.6536 18.6211 19.25C18.6211 18.1016 18.5846 16.8802 18.5117 15.5859C18.457 14.2734 18.3477 12.9883 18.1836 11.7305C18.0378 10.4544 17.8281 9.24219 17.5547 8.09375C17.2812 6.92708 16.9258 5.90625 16.4883 5.03125C16.0508 4.13802 15.5221 3.42708 14.9023 2.89844C14.2826 2.36979 13.5625 2.10547 12.7422 2.10547C11.8307 2.10547 11.0378 2.36979 10.3633 2.89844C9.6888 3.42708 9.11458 4.13802 8.64062 5.03125C8.1849 5.92448 7.8112 6.95443 7.51953 8.12109C7.22786 9.28776 7 10.5091 6.83594 11.7852C6.6901 13.0612 6.58984 14.3464 6.53516 15.6406C6.48047 16.9349 6.45312 18.1562 6.45312 19.3047ZM38.5273 38.4453C37.9622 38.4453 37.3151 38.4271 36.5859 38.3906C35.8568 38.3724 35.1094 38.3086 34.3438 38.1992C33.5781 38.0898 32.8307 37.9349 32.1016 37.7344C31.3724 37.5521 30.7161 37.306 30.1328 36.9961C29.5677 36.668 29.112 36.2669 28.7656 35.793C28.4193 35.319 28.2461 34.7539 28.2461 34.0977C28.2461 33.6966 28.3372 33.3411 28.5195 33.0312C28.7018 32.7214 28.9479 32.4661 29.2578 32.2656C29.5677 32.0651 29.9141 31.9102 30.2969 31.8008C30.6979 31.6914 31.1172 31.6367 31.5547 31.6367C32.0651 31.6367 32.5391 31.7461 32.9766 31.9648C33.4323 32.1836 33.8607 32.457 34.2617 32.7852C34.681 33.0951 35.0911 33.4414 35.4922 33.8242C35.8932 34.1888 36.3125 34.5352 36.75 34.8633C37.1875 35.1732 37.6523 35.4375 38.1445 35.6562C38.6367 35.875 39.1745 35.9844 39.7578 35.9844C40.8333 35.8932 41.7812 35.5195 42.6016 34.8633C43.4219 34.207 44.1055 33.3958 44.6523 32.4297C45.1992 31.4453 45.6094 30.3789 45.8828 29.2305C46.1562 28.0638 46.293 26.9336 46.293 25.8398C46.293 24.4909 46.138 23.3424 45.8281 22.3945C45.5182 21.4466 45.1263 20.6719 44.6523 20.0703C44.1966 19.4688 43.6862 19.0312 43.1211 18.7578C42.556 18.4661 42.0182 18.3203 41.5078 18.3203C41.0885 18.3203 40.724 18.3659 40.4141 18.457C40.1042 18.5482 39.8307 18.6576 39.5938 18.7852C39.3568 18.8945 39.1562 19.0221 38.9922 19.168C38.8281 19.2956 38.6732 19.4049 38.5273 19.4961C38.3997 19.5872 38.263 19.6602 38.1172 19.7148C37.9714 19.7695 37.7435 19.7969 37.4336 19.7969C37.1055 19.7969 36.8411 19.6784 36.6406 19.4414C36.4583 19.1862 36.3672 18.9583 36.3672 18.7578C36.3672 18.6484 36.4766 18.4661 36.6953 18.2109C36.9323 17.9375 37.151 17.7096 37.3516 17.5273C38.0078 16.944 38.6914 16.2878 39.4023 15.5586C40.1315 14.8294 40.7878 14.0638 41.3711 13.2617C41.9544 12.4596 42.4375 11.6393 42.8203 10.8008C43.2031 9.96224 43.3945 9.13281 43.3945 8.3125C43.3945 7.69271 43.2669 7.10026 43.0117 6.53516C42.7747 5.95182 42.4466 5.43229 42.0273 4.97656C41.6263 4.52083 41.1615 4.15625 40.6328 3.88281C40.1224 3.60938 39.5938 3.47266 39.0469 3.47266C38.0078 3.47266 37.0964 3.65495 36.3125 4.01953C35.5286 4.36589 34.8542 4.80339 34.2891 5.33203C33.724 5.86068 33.25 6.42578 32.8672 7.02734C32.4844 7.61068 32.1654 8.13932 31.9102 8.61328C31.8008 8.8138 31.6732 8.94141 31.5273 8.99609C31.3997 9.05078 31.2266 9.07812 31.0078 9.07812C30.9167 9.07812 30.7982 9.0599 30.6523 9.02344C30.5247 8.98698 30.3971 8.93229 30.2695 8.85938C30.1419 8.78646 30.0326 8.69531 29.9414 8.58594C29.8503 8.47656 29.8047 8.34896 29.8047 8.20312C29.8047 8.22135 29.8138 8.19401 29.832 8.12109C29.8685 8.04818 29.9049 7.96615 29.9414 7.875C29.9779 7.78385 30.0234 7.67448 30.0781 7.54688C30.5339 6.45312 31.1263 5.44141 31.8555 4.51172C32.6029 3.58203 33.4232 2.78906 34.3164 2.13281C35.2096 1.45833 36.1576 0.938802 37.1602 0.574219C38.1628 0.191406 39.1654 0 40.168 0C41.6081 0 42.9115 0.145833 44.0781 0.4375C45.2448 0.729167 46.2474 1.15755 47.0859 1.72266C47.9245 2.28776 48.5716 2.98958 49.0273 3.82812C49.4831 4.64844 49.7109 5.59635 49.7109 6.67188C49.7109 7.49219 49.5378 8.27604 49.1914 9.02344C48.8633 9.77083 48.4258 10.4909 47.8789 11.1836C47.3503 11.8581 46.7396 12.4961 46.0469 13.0977C45.3724 13.6992 44.6797 14.2461 43.9688 14.7383C45.5729 14.9023 46.9492 15.2852 48.0977 15.8867C49.2461 16.4883 50.1849 17.2448 50.9141 18.1562C51.6615 19.0495 52.2083 20.0612 52.5547 21.1914C52.901 22.3216 53.0742 23.4883 53.0742 24.6914C53.0742 26.0404 52.8555 27.3255 52.418 28.5469C51.9805 29.75 51.3971 30.862 50.668 31.8828C49.9388 32.8854 49.082 33.7969 48.0977 34.6172C47.1315 35.4193 46.1107 36.112 45.0352 36.6953C43.9596 37.2604 42.8568 37.6888 41.7266 37.9805C40.6146 38.2904 39.5482 38.4453 38.5273 38.4453Z" fill="#F0F1F3"/>
</svg>
