<svg width="55" height="39" viewBox="0 0 55 39" fill="none" xmlns="http://www.w3.org/2000/svg">
<path d="M12.7148 38.4453C10.6367 38.4453 8.80469 37.9805 7.21875 37.0508C5.63281 36.1029 4.30208 34.7904 3.22656 33.1133C2.16927 31.418 1.36719 29.3945 0.820312 27.043C0.273438 24.6914 0 22.1029 0 19.2773C0 17.7826 0.11849 16.2695 0.355469 14.7383C0.610677 13.1888 0.97526 11.7031 1.44922 10.2812C1.92318 8.84115 2.51562 7.5013 3.22656 6.26172C3.95573 5.00391 4.78516 3.91927 5.71484 3.00781C6.66276 2.07812 7.72005 1.34896 8.88672 0.820312C10.0534 0.273438 11.3294 0 12.7148 0C14.1003 0 15.3672 0.264323 16.5156 0.792969C17.6823 1.32161 18.7214 2.05078 19.6328 2.98047C20.5443 3.91016 21.3372 5.00391 22.0117 6.26172C22.7044 7.5013 23.2695 8.84115 23.707 10.2812C24.1628 11.7031 24.5 13.1888 24.7188 14.7383C24.9557 16.2695 25.0742 17.7917 25.0742 19.3047C25.0742 22.1302 24.819 24.7188 24.3086 27.0703C23.7982 29.4219 23.0234 31.4453 21.9844 33.1406C20.9635 34.8177 19.6784 36.1211 18.1289 37.0508C16.5977 37.9805 14.793 38.4453 12.7148 38.4453ZM6.45312 19.3047C6.45312 20.7266 6.48047 22.1393 6.53516 23.543C6.58984 24.9284 6.69922 26.2591 6.86328 27.5352C7.02734 28.793 7.24609 29.9596 7.51953 31.0352C7.8112 32.1107 8.1849 33.0404 8.64062 33.8242C9.11458 34.6081 9.67969 35.2279 10.3359 35.6836C11.0104 36.1211 11.8034 36.3398 12.7148 36.3398C13.6263 36.3398 14.4102 36.112 15.0664 35.6562C15.7227 35.2005 16.2695 34.5807 16.707 33.7969C17.1445 32.9948 17.4909 32.0469 17.7461 30.9531C18.0013 29.8594 18.1927 28.6836 18.3203 27.4258C18.4479 26.1497 18.5299 24.819 18.5664 23.4336C18.6029 22.0482 18.6211 20.6536 18.6211 19.25C18.6211 18.1016 18.5846 16.8802 18.5117 15.5859C18.457 14.2734 18.3477 12.9883 18.1836 11.7305C18.0378 10.4544 17.8281 9.24219 17.5547 8.09375C17.2812 6.92708 16.9258 5.90625 16.4883 5.03125C16.0508 4.13802 15.5221 3.42708 14.9023 2.89844C14.2826 2.36979 13.5625 2.10547 12.7422 2.10547C11.8307 2.10547 11.0378 2.36979 10.3633 2.89844C9.6888 3.42708 9.11458 4.13802 8.64062 5.03125C8.1849 5.92448 7.8112 6.95443 7.51953 8.12109C7.22786 9.28776 7 10.5091 6.83594 11.7852C6.6901 13.0612 6.58984 14.3464 6.53516 15.6406C6.48047 16.9349 6.45312 18.1562 6.45312 19.3047ZM28.1641 26.9336C28.1641 26.8607 28.1641 26.7695 28.1641 26.6602C28.1641 26.5326 28.1641 26.4049 28.1641 26.2773C28.1823 26.1497 28.1914 26.0404 28.1914 25.9492C28.2096 25.8398 28.237 25.7669 28.2734 25.7305L44.6797 0.65625C44.7891 0.492188 44.9167 0.373698 45.0625 0.300781C45.2083 0.209635 45.3633 0.145833 45.5273 0.109375C45.6914 0.0729167 45.8464 0.0546875 45.9922 0.0546875C46.1562 0.0364583 46.293 0.0273438 46.4023 0.0273438C46.5482 0.0273438 46.7396 0.0364583 46.9766 0.0546875C47.2318 0.0546875 47.4688 0.0820312 47.6875 0.136719C47.9245 0.173177 48.125 0.236979 48.2891 0.328125C48.4714 0.419271 48.5625 0.55599 48.5625 0.738281V22.1211C48.5625 22.4674 48.5807 22.668 48.6172 22.7227C48.6719 22.7773 48.8268 22.8047 49.082 22.8047H53.6484C53.849 22.8047 54.0404 22.8229 54.2227 22.8594C54.4049 22.8958 54.4961 23.0417 54.4961 23.2969V27.3438C54.4961 27.7812 54.3138 28 53.9492 28H48.9727C48.7721 28 48.6536 28.0273 48.6172 28.082C48.5807 28.1185 48.5625 28.2734 48.5625 28.5469V37.4336C48.5625 37.5247 48.526 37.6706 48.4531 37.8711C48.3984 38.0716 48.1888 38.1719 47.8242 38.1719H42.957C42.7018 38.1719 42.5469 38.0898 42.4922 37.9258C42.4375 37.7617 42.4102 37.6341 42.4102 37.543V28.8203C42.4102 28.6198 42.401 28.4648 42.3828 28.3555C42.3828 28.2461 42.3464 28.1641 42.2734 28.1094C42.2005 28.0547 42.0911 28.0273 41.9453 28.0273C41.7995 28.0091 41.5898 28 41.3164 28H29.3672C29.0208 28 28.7292 27.8906 28.4922 27.6719C28.2734 27.4349 28.1641 27.1888 28.1641 26.9336ZM33.332 22.4766C33.332 22.6224 33.3867 22.7135 33.4961 22.75C33.6237 22.7865 33.8607 22.8047 34.207 22.8047H41.8086C42.0456 22.8047 42.1914 22.75 42.2461 22.6406C42.319 22.5312 42.3737 22.4036 42.4102 22.2578V11.293C42.4102 11.0378 42.3737 10.8008 42.3008 10.582C42.2461 10.3451 42.1185 10.2266 41.918 10.2266C41.7721 10.2266 41.6263 10.2995 41.4805 10.4453C41.3529 10.5729 41.2344 10.6914 41.125 10.8008L33.6328 22.0117C33.5964 22.0482 33.5599 22.0938 33.5234 22.1484C33.5052 22.1849 33.4779 22.2305 33.4414 22.2852C33.4049 22.3581 33.3685 22.4219 33.332 22.4766Z" fill="#F0F1F3"/>
</svg>
