<svg width="133" height="40" viewBox="0 0 133 40" fill="none" xmlns="http://www.w3.org/2000/svg">
<path d="M29.8534 9.81245V22.1904C29.8534 22.391 29.7737 22.5834 29.6319 22.7253C29.49 22.8672 29.2976 22.9469 29.0969 22.9469H25.1896C24.9889 22.9468 24.7966 22.8671 24.6547 22.7252C24.5129 22.5833 24.4331 22.391 24.433 22.1904V2.05709C24.433 1.85645 24.5127 1.66402 24.6546 1.52215C24.7965 1.38027 24.9889 1.30056 25.1896 1.30056H28.8054C29.006 1.30056 29.1985 1.38027 29.3403 1.52215C29.4822 1.66402 29.5619 1.85645 29.5619 2.05709V4.89238C29.5619 4.89238 30.8545 0.847918 34.6905 0.847918C34.6905 0.847918 38.4847 0.389268 40.0275 4.60051C40.0275 4.60051 41.32 0.847918 45.2394 0.847918C45.2394 0.847918 51.0681 0.501345 51.0681 6.53252L51.1125 9.85415V22.232C51.1125 22.4327 51.0328 22.6251 50.8909 22.767C50.749 22.9089 50.5566 22.9886 50.3559 22.9886H46.4482C46.2476 22.9885 46.0553 22.9087 45.9134 22.7669C45.7715 22.625 45.6918 22.4327 45.6917 22.232L45.656 8.72837C45.7671 5.67059 43.2934 5.89308 43.2934 5.89308C40.1802 5.94878 40.4798 9.85415 40.4798 9.85415V22.232C40.4798 22.4327 40.4001 22.6251 40.2582 22.767C40.1163 22.9089 39.9239 22.9886 39.7233 22.9886H35.8159C35.6153 22.9885 35.4229 22.9087 35.2811 22.7669C35.1392 22.625 35.0595 22.4327 35.0594 22.232V9.03391C35.0594 9.03391 35.2879 5.86506 32.5079 5.86506C32.5083 5.86506 29.7564 5.50381 29.8534 9.81245ZM130.575 9.77543V22.153C130.575 22.3536 130.495 22.546 130.353 22.6878C130.211 22.8297 130.019 22.9094 129.818 22.9095L125.754 22.9882C125.554 22.9881 125.361 22.9084 125.219 22.7666C125.078 22.6247 124.998 22.4323 124.998 22.2317V9.03391C124.998 9.03391 125.226 5.86506 122.447 5.86506C122.447 5.86506 119.792 5.7343 119.792 10.7027V22.19C119.792 22.3906 119.712 22.583 119.57 22.7249C119.428 22.8667 119.236 22.9465 119.035 22.9465H115.128C114.927 22.9465 114.735 22.8667 114.593 22.7249C114.451 22.583 114.371 22.3906 114.371 22.19V2.05709C114.371 1.85647 114.451 1.6641 114.593 1.52224C114.735 1.38039 114.927 1.30065 115.128 1.30056H118.743C118.944 1.30056 119.137 1.38027 119.278 1.52215C119.42 1.66402 119.5 1.85645 119.5 2.05709V4.89238C119.5 4.89238 120.793 0.847918 124.629 0.847918C124.629 0.847918 128.738 0.224487 130.122 4.52213C130.122 4.52179 130.575 5.40841 130.575 9.77543ZM102.362 0.764527C97.3651 0.764527 93.3139 4.97577 93.3139 12.064C93.3139 18.3047 96.4411 23.3635 102.362 23.3635C107.949 23.3635 111.41 18.3047 111.41 12.064C111.41 5.10086 107.359 0.764527 102.362 0.764527ZM105.516 12.3142C105.516 14.9827 105.182 16.4003 105.182 16.4003C104.707 19.2213 102.66 19.2253 102.358 19.2103C102.032 19.2233 99.9669 19.1939 99.5396 16.4003C99.5396 16.4003 99.206 14.9827 99.206 12.3142V11.8695C99.206 9.20103 99.5396 7.78338 99.5396 7.78338C99.9669 4.98978 102.032 4.96043 102.358 4.97311C102.66 4.9581 104.707 4.96176 105.182 7.78338C105.182 7.78338 105.516 9.20103 105.516 11.8695V12.3142ZM91.0461 4.86436V1.9757C91.046 1.77508 90.9662 1.58271 90.8244 1.44085C90.6825 1.299 90.4901 1.21926 90.2895 1.21918H77.3739C77.1733 1.21918 76.9809 1.29888 76.839 1.44076C76.6971 1.58263 76.6174 1.77506 76.6174 1.9757V4.84201C76.6175 5.04263 76.6972 5.235 76.8391 5.37686C76.9809 5.51872 77.1733 5.59845 77.3739 5.59854H84.1109L76.1367 17.1665C76.1367 17.1665 75.8225 17.6355 75.8329 18.1536V21.6723C75.8329 21.6723 75.7808 22.8788 77.1491 22.1787C77.1491 22.1787 79.5795 20.7103 83.6546 20.7103C83.6546 20.7103 87.679 20.6603 90.3622 22.3051C90.3622 22.3051 91.476 22.8114 91.476 21.698V18.6352C91.476 18.6352 91.5771 17.8247 90.514 17.3186C90.514 17.3186 87.4259 15.6228 83.3761 15.901L91.0461 4.86436ZM21.4173 19.3464L20.1941 17.4844C19.8048 16.7893 19.8329 16.0107 19.8329 16.0107V7.4218C19.9996 -1.78814e-06 11.7716 0.639441 11.7716 0.639441C4.45724 0.639441 3.37683 6.33171 3.37683 6.33171C3.07195 7.47617 3.95856 7.50386 3.95856 7.50386L7.5327 7.86644C7.5327 7.86644 8.14212 8.00587 8.36394 7.28037C8.36394 7.28037 8.8346 4.79698 11.4667 4.79698C14.3307 4.79698 14.301 7.25502 14.301 7.25502V9.31277C8.58376 9.50391 5.93426 11.091 5.93426 11.091C2.40416 13.0924 2.62631 17.0675 2.62631 17.0675C2.62631 23.544 8.79724 23.2658 8.79724 23.2658C12.7443 23.2658 15.0792 20.3751 15.0792 20.3751C15.7741 21.5986 17.0529 22.7654 17.0529 22.7654C17.6927 23.4592 18.3595 22.8768 18.3595 22.8768L21.2505 20.4031C21.8896 19.9301 21.4173 19.3464 21.4173 19.3464ZM10.7236 19.2663C8.86695 19.2663 8.17681 17.4214 8.48502 15.6081C8.79357 13.7949 10.396 12.3699 14.3014 12.4116V13.514C14.4398 18.33 12.269 19.2663 10.7236 19.2663ZM73.3418 19.3464L72.119 17.4844C71.7297 16.7893 71.7574 16.0107 71.7574 16.0107V7.4218C71.9242 -1.78814e-06 63.6962 0.639441 63.6962 0.639441C56.3818 0.639441 55.3014 6.33171 55.3014 6.33171C54.9965 7.47617 55.8831 7.50386 55.8831 7.50386L59.4572 7.86644C59.4572 7.86644 60.0666 8.00587 60.2885 7.28037C60.2885 7.28037 60.7591 4.79698 63.3913 4.79698C66.2553 4.79698 66.2256 7.25502 66.2256 7.25502V9.31277C60.5086 9.50391 57.8588 11.091 57.8588 11.091C54.3287 13.0924 54.5508 17.0675 54.5508 17.0675C54.5508 23.544 60.7218 23.2658 60.7218 23.2658C64.6688 23.2658 67.0038 20.3751 67.0038 20.3751C67.6989 21.5986 68.9771 22.7654 68.9771 22.7654C69.6169 23.4592 70.284 22.8768 70.284 22.8768L73.1747 20.4031C73.8141 19.9301 73.3418 19.3464 73.3418 19.3464ZM62.6481 19.2663C60.7915 19.2663 60.1013 17.4214 60.4095 15.6081C60.7181 13.7949 62.3205 12.3699 66.2256 12.4116V13.514C66.3643 18.33 64.1938 19.2663 62.6481 19.2663Z" fill="black"/>
<path d="M83.1808 35.6036C83.1808 35.6036 82.8539 36.1724 83.2555 36.2994C83.2555 36.2994 83.7092 36.4766 84.2749 35.9515C84.2749 35.9515 88.4007 32.3474 88.5001 25.7855C88.5001 25.7855 88.5305 24.9659 88.2016 24.7418C88.2016 24.7418 86.909 23.5983 82.2612 23.9462C82.2612 23.9462 78.2097 24.2198 75.9979 26.1834C75.9979 26.1834 75.7991 26.3572 75.7991 26.5807C75.7991 26.5807 75.7514 27.0634 76.9672 26.8542C76.9672 26.8542 81.0183 26.2822 83.4293 26.5807C83.4293 26.5807 84.6725 26.7298 85.0204 27.1528C85.0204 27.1528 85.5921 27.6251 85.2936 29.1905C85.2936 29.1912 84.473 33.1679 83.1808 35.6036Z" fill="#F3971B"/>
<path d="M82.3639 29.3083C82.3639 29.3083 82.969 30.0921 81.9927 30.7683C81.9927 30.7683 71.5631 39.1107 54.051 39.1107C54.051 39.1107 36.0245 40 20.9724 26.3239C20.9724 26.3239 20.4447 25.8606 20.7722 25.4299C20.7722 25.4299 21.0651 25.0336 21.8233 25.4646C21.8233 25.4646 35.9828 34.2877 54.579 34.2877C54.579 34.2877 67.5046 34.788 80.7638 29.1175C80.7638 29.1175 81.8202 28.5701 82.3639 29.3083Z" fill="#F3971B"/>
</svg>
