<svg width="133" height="40" viewBox="0 0 133 40" fill="none" xmlns="http://www.w3.org/2000/svg">
<path d="M29.853 9.81244V22.1903C29.853 22.391 29.7733 22.5834 29.6314 22.7253C29.4895 22.8672 29.2971 22.9469 29.0964 22.9469H25.1891C24.9885 22.9468 24.7961 22.867 24.6542 22.7252C24.5124 22.5833 24.4326 22.391 24.4325 22.1903V2.05707C24.4325 1.85643 24.5123 1.66401 24.6541 1.52213C24.796 1.38025 24.9884 1.30055 25.1891 1.30055H28.8049C29.0055 1.30055 29.198 1.38025 29.3398 1.52213C29.4817 1.66401 29.5614 1.85643 29.5614 2.05707V4.89237C29.5614 4.89237 30.854 0.847903 34.69 0.847903C34.69 0.847903 38.4843 0.389253 40.027 4.6005C40.027 4.6005 41.3195 0.847903 45.2389 0.847903C45.2389 0.847903 51.0676 0.50133 51.0676 6.5325L51.112 9.85413V22.232C51.112 22.4327 51.0323 22.6251 50.8904 22.767C50.7485 22.9088 50.5561 22.9886 50.3555 22.9886H46.4478C46.2471 22.9885 46.0548 22.9087 45.9129 22.7669C45.771 22.625 45.6913 22.4326 45.6912 22.232L45.6555 8.72835C45.7666 5.67057 43.2929 5.89306 43.2929 5.89306C40.1798 5.94877 40.4793 9.85413 40.4793 9.85413V22.232C40.4793 22.4327 40.3996 22.6251 40.2577 22.767C40.1158 22.9088 39.9234 22.9886 39.7228 22.9886H35.8154C35.6148 22.9885 35.4224 22.9087 35.2806 22.7669C35.1387 22.625 35.059 22.4326 35.0589 22.232V9.0339C35.0589 9.0339 35.2874 5.86504 32.5075 5.86504C32.5078 5.86504 29.7559 5.50379 29.853 9.81244ZM130.574 9.77541V22.153C130.574 22.3536 130.494 22.546 130.353 22.6878C130.211 22.8297 130.018 22.9094 129.818 22.9095L125.754 22.9882C125.553 22.9881 125.361 22.9084 125.219 22.7665C125.077 22.6247 124.997 22.4323 124.997 22.2317V9.0339C124.997 9.0339 125.226 5.86504 122.446 5.86504C122.446 5.86504 119.791 5.73428 119.791 10.7027V22.19C119.791 22.3906 119.712 22.583 119.57 22.7248C119.428 22.8667 119.235 22.9464 119.035 22.9465H115.127C114.927 22.9464 114.734 22.8667 114.592 22.7248C114.45 22.583 114.371 22.3906 114.371 22.19V2.05707C114.371 1.85646 114.45 1.66408 114.592 1.52223C114.734 1.38037 114.927 1.30064 115.127 1.30055H118.743C118.944 1.30055 119.136 1.38025 119.278 1.52213C119.42 1.66401 119.5 1.85643 119.5 2.05707V4.89237C119.5 4.89237 120.792 0.847903 124.628 0.847903C124.628 0.847903 128.737 0.224472 130.121 4.52211C130.122 4.52178 130.574 5.40839 130.574 9.77541ZM102.361 0.764512C97.3646 0.764512 93.3135 4.97576 93.3135 12.064C93.3135 18.3046 96.4406 23.3635 102.361 23.3635C107.949 23.3635 111.409 18.3046 111.409 12.064C111.409 5.10085 107.358 0.764512 102.361 0.764512ZM105.515 12.3142C105.515 14.9827 105.182 16.4003 105.182 16.4003C104.707 19.2213 102.659 19.2253 102.357 19.2103C102.031 19.2233 99.9664 19.1939 99.5391 16.4003C99.5391 16.4003 99.2055 14.9827 99.2055 12.3142V11.8695C99.2055 9.20102 99.5391 7.78337 99.5391 7.78337C99.9664 4.98977 102.032 4.96042 102.357 4.97309C102.659 4.95808 104.707 4.96175 105.182 7.78337C105.182 7.78337 105.515 9.20102 105.515 11.8695V12.3142ZM91.0456 4.86435V1.97568C91.0455 1.77507 90.9657 1.58269 90.8239 1.44084C90.682 1.29898 90.4896 1.21925 90.289 1.21916H77.3734C77.1728 1.21916 76.9804 1.29886 76.8385 1.44074C76.6966 1.58262 76.6169 1.77504 76.6169 1.97568V4.842C76.617 5.04261 76.6967 5.23499 76.8386 5.37684C76.9805 5.5187 77.1728 5.59843 77.3734 5.59852H84.1104L76.1363 17.1665C76.1363 17.1665 75.822 17.6355 75.8324 18.1535V21.6723C75.8324 21.6723 75.7803 22.8788 77.1486 22.1787C77.1486 22.1787 79.579 20.7103 83.6541 20.7103C83.6541 20.7103 87.6786 20.6603 90.3617 22.3051C90.3617 22.3051 91.4755 22.8114 91.4755 21.698V18.6352C91.4755 18.6352 91.5766 17.8246 90.5135 17.3186C90.5135 17.3186 87.4254 15.6228 83.3756 15.901L91.0456 4.86435ZM21.4168 19.3464L20.1936 17.4844C19.8044 16.7893 19.8324 16.0107 19.8324 16.0107V7.42178C19.9992 -1.70469e-05 11.7711 0.639426 11.7711 0.639426C4.45675 0.639426 3.37634 6.3317 3.37634 6.3317C3.07146 7.47616 3.95808 7.50384 3.95808 7.50384L7.53221 7.86643C7.53221 7.86643 8.14163 8.00586 8.36345 7.28035C8.36345 7.28035 8.83411 4.79697 11.4663 4.79697C14.3302 4.79697 14.3006 7.255 14.3006 7.255V9.31276C8.58327 9.50389 5.93377 11.091 5.93377 11.091C2.40367 13.0924 2.62582 17.0675 2.62582 17.0675C2.62582 23.5439 8.79675 23.2657 8.79675 23.2657C12.7438 23.2657 15.0788 20.3751 15.0788 20.3751C15.7736 21.5986 17.0525 22.7654 17.0525 22.7654C17.6922 23.4592 18.359 22.8768 18.359 22.8768L21.25 20.4031C21.8891 19.9301 21.4168 19.3464 21.4168 19.3464ZM10.7231 19.2663C8.86647 19.2663 8.17632 17.4214 8.48454 15.6081C8.79308 13.7949 10.3955 12.3699 14.3009 12.4116V13.514C14.4393 18.33 12.2685 19.2663 10.7231 19.2663ZM73.3413 19.3464L72.1185 17.4844C71.7292 16.7893 71.7569 16.0107 71.7569 16.0107V7.42178C71.9237 -1.70469e-05 63.6957 0.639426 63.6957 0.639426C56.3813 0.639426 55.3009 6.3317 55.3009 6.3317C54.996 7.47616 55.8826 7.50384 55.8826 7.50384L59.4567 7.86643C59.4567 7.86643 60.0662 8.00586 60.288 7.28035C60.288 7.28035 60.7586 4.79697 63.3908 4.79697C66.2548 4.79697 66.2251 7.255 66.2251 7.255V9.31276C60.5081 9.50389 57.8583 11.091 57.8583 11.091C54.3282 13.0924 54.5503 17.0675 54.5503 17.0675C54.5503 23.5439 60.7213 23.2657 60.7213 23.2657C64.6683 23.2657 67.0033 20.3751 67.0033 20.3751C67.6984 21.5986 68.9766 22.7654 68.9766 22.7654C69.6164 23.4592 70.2835 22.8768 70.2835 22.8768L73.1742 20.4031C73.8137 19.9301 73.3413 19.3464 73.3413 19.3464ZM62.6476 19.2663C60.791 19.2663 60.1008 17.4214 60.4091 15.6081C60.7176 13.7949 62.32 12.3699 66.2251 12.4116V13.514C66.3638 18.33 64.1933 19.2663 62.6476 19.2663Z" fill="#9AA1A6"/>
<path d="M83.1808 35.6036C83.1808 35.6036 82.8539 36.1724 83.2555 36.2995C83.2555 36.2995 83.7092 36.4766 84.2749 35.9515C84.2749 35.9515 88.4007 32.3474 88.5001 25.7855C88.5001 25.7855 88.5305 24.966 88.2016 24.7418C88.2016 24.7418 86.909 23.5983 82.2612 23.9462C82.2612 23.9462 78.2097 24.2198 75.9979 26.1835C75.9979 26.1835 75.7991 26.3572 75.7991 26.5807C75.7991 26.5807 75.7514 27.0634 76.9672 26.8543C76.9672 26.8543 81.0183 26.2822 83.4293 26.5807C83.4293 26.5807 84.6725 26.7298 85.0204 27.1528C85.0204 27.1528 85.5921 27.6251 85.2936 29.1905C85.2936 29.1912 84.473 33.168 83.1808 35.6036Z" fill="#9AA1A6"/>
<path d="M82.3639 29.3083C82.3639 29.3083 82.969 30.0922 81.9927 30.7683C81.9927 30.7683 71.5631 39.1107 54.051 39.1107C54.051 39.1107 36.0245 40 20.9724 26.3239C20.9724 26.3239 20.4447 25.8606 20.7722 25.4299C20.7722 25.4299 21.0651 25.0337 21.8233 25.4646C21.8233 25.4646 35.9828 34.2877 54.579 34.2877C54.579 34.2877 67.5046 34.7881 80.7638 29.1175C80.7638 29.1175 81.8202 28.5701 82.3639 29.3083Z" fill="#9AA1A6"/>
</svg>
