<svg width="48" height="48" viewBox="0 0 48 48" fill="none" xmlns="http://www.w3.org/2000/svg">
<path d="M7.10545 38.9813L17.193 11.2125C17.2793 10.9749 17.4243 10.763 17.6145 10.5964C17.8047 10.4298 18.0339 10.314 18.2809 10.2598C18.5278 10.2055 18.7844 10.2146 19.027 10.2861C19.2695 10.3576 19.49 10.4892 19.668 10.6688L37.3305 28.3313C37.51 28.5093 37.6416 28.7298 37.7131 28.9723C37.7846 29.2148 37.7937 29.4714 37.7394 29.7183C37.6852 29.9653 37.5694 30.1945 37.4028 30.3847C37.2363 30.5749 37.0243 30.7199 36.7867 30.8063L9.01795 40.8938C8.7508 40.9959 8.45979 41.0185 8.18008 40.9588C7.90036 40.8992 7.6439 40.7598 7.44166 40.5576C7.23942 40.3553 7.10006 40.0989 7.0404 39.8191C6.98074 39.5394 7.00333 39.2484 7.10545 38.9813V38.9813Z" stroke="#121314" stroke-width="2.5" stroke-linecap="round" stroke-linejoin="round"/>
<path d="M31.5 13.5C31.5 13.5 31.5 9 36 9C40.5 9 40.5 4.5 40.5 4.5" stroke="#121314" stroke-width="2.5" stroke-linecap="round" stroke-linejoin="round"/>
<path d="M19.1998 37.2L10.7998 28.8" stroke="#121314" stroke-width="2.5" stroke-linecap="round" stroke-linejoin="round"/>
<path d="M26.999 3V7.5" stroke="#121314" stroke-width="2.5" stroke-linecap="round" stroke-linejoin="round"/>
<path d="M40.502 21L43.502 24" stroke="#121314" stroke-width="2.5" stroke-linecap="round" stroke-linejoin="round"/>
<path d="M40.502 15L45.002 13.5" stroke="#121314" stroke-width="2.5" stroke-linecap="round" stroke-linejoin="round"/>
<path d="M14.4014 18.8999L29.1014 33.5999" stroke="#121314" stroke-width="2.5" stroke-linecap="round" stroke-linejoin="round"/>
</svg>
