<svg width="16" height="16" viewBox="0 0 16 16" fill="none" xmlns="http://www.w3.org/2000/svg">
<path d="M0 8C0 6.54933 0.357344 5.21067 1.072 3.984C1.78667 2.75733 2.75734 1.78667 3.984 1.072C5.21067 0.357328 6.54934 0 8 0C9.45067 0 10.7893 0.357328 12.016 1.072C13.2427 1.78667 14.2133 2.75733 14.928 3.984C15.6427 5.21067 16 6.54933 16 8C16 9.45067 15.6427 10.7893 14.928 12.016C14.2133 13.2427 13.2427 14.2133 12.016 14.928C10.7893 15.6427 9.45067 16 8 16C6.54934 16 5.21067 15.6427 3.984 14.928C2.75734 14.2133 1.78667 13.2427 1.072 12.016C0.357344 10.7893 0 9.45067 0 8ZM1.328 8C1.328 9.664 1.888 11.1307 3.008 12.4C3.52 11.3973 4.33067 10.4427 5.44 9.536C6.54934 8.62933 7.632 8.05867 8.688 7.824C8.528 7.45067 8.37334 7.11467 8.224 6.816C6.38934 7.40267 4.40534 7.696 2.272 7.696C1.856 7.696 1.54667 7.69067 1.344 7.68C1.344 7.72267 1.34134 7.776 1.336 7.84C1.33067 7.904 1.328 7.95733 1.328 8ZM1.536 6.352C1.77067 6.37333 2.11734 6.384 2.576 6.384C4.35734 6.384 6.048 6.144 7.648 5.664C6.83734 4.224 5.94667 3.024 4.976 2.064C4.13334 2.49067 3.41067 3.08267 2.808 3.84C2.20534 4.59733 1.78134 5.43467 1.536 6.352ZM3.92 13.264C5.12534 14.2027 6.48534 14.672 8 14.672C8.78934 14.672 9.57334 14.5227 10.352 14.224C10.1387 12.4 9.72267 10.6347 9.104 8.928C8.12267 9.14133 7.13334 9.68 6.136 10.544C5.13867 11.408 4.4 12.3147 3.92 13.264ZM6.368 1.552C7.30667 2.52267 8.176 3.73333 8.976 5.184C10.4267 4.576 11.52 3.80267 12.256 2.864C11.0187 1.84 9.6 1.328 8 1.328C7.456 1.328 6.912 1.40267 6.368 1.552ZM9.552 6.32C9.712 6.66133 9.89334 7.09333 10.096 7.616C10.8853 7.54133 11.744 7.504 12.672 7.504C13.3333 7.504 13.9893 7.52 14.64 7.552C14.5547 6.10133 14.032 4.81067 13.072 3.68C12.3787 4.71467 11.2053 5.59467 9.552 6.32ZM10.496 8.736C11.04 10.3147 11.408 11.936 11.6 13.6C12.4427 13.056 13.1307 12.3573 13.664 11.504C14.1973 10.6507 14.5173 9.728 14.624 8.736C13.8453 8.68267 13.136 8.656 12.496 8.656C11.9093 8.656 11.2427 8.68267 10.496 8.736Z" fill="white"/>
</svg>
