<svg width="114" height="28" viewBox="0 0 114 28" fill="none" xmlns="http://www.w3.org/2000/svg">
<g clip-path="url(#clip0_421_1809)">
<path d="M34.7846 11.1827C36.0868 11.1827 37.1423 10.1267 37.1423 8.82422C37.1423 7.52155 36.0868 6.46578 34.7846 6.46578C33.4823 6.46578 32.4268 7.52155 32.4268 8.82422C32.4268 10.1267 33.4823 11.1827 34.7846 11.1827ZM112.598 19.2407C112.239 18.9884 111.962 18.9467 111.733 19.4364C107.773 28.0133 101.099 23.7333 101.762 24.11C103.242 23.4329 107.135 20.3107 106.547 15.9996C106.19 13.3649 103.928 12.1962 101.528 12.6147C97.3383 13.3451 95.797 17.8642 96.5816 21.8651C96.719 22.5522 96.9643 23.1189 97.2094 23.674C92.4748 27.5242 90.5945 20.2273 90.3812 19.3553C90.3727 19.3087 94.037 16.2544 95.0561 8.97644C96.1243 1.34867 93.691 -0.040222 91.2028 0.00311137C86.5983 0.0833336 85.3541 9.70355 87.0256 17.7213C86.8856 17.7578 86.2341 18.1187 85.1872 18.1591C84.4339 15.7887 81.215 13.7109 80.3725 14.5116C78.2641 16.5144 80.8839 20.4302 82.7272 20.7373C81.6199 27.5575 74.6948 25.8684 75.9839 17.3238C78.239 13.136 79.9541 6.90911 79.6481 3.15C79.5396 1.81911 78.5556 0.0360002 76.3303 0.124445C72.0501 0.293778 71.5848 9.91666 72.0865 16.7464C72.0617 16.5782 71.8234 17.5762 70.0694 18.0724C69.6545 15.7695 65.9465 13.458 65.0737 14.5693C63.4397 16.6493 66.2714 20.358 67.6128 20.6167C66.5054 27.4367 59.5805 25.7475 60.8697 17.2029C63.1248 13.0153 64.8397 6.78844 64.5337 3.02933C64.4252 1.69822 63.4414 -0.0848886 61.2159 0.00333359C56.9357 0.172889 56.4703 9.79578 56.9721 16.6256C56.947 16.4547 56.7032 17.4855 54.8777 17.9735C54.8166 14.9858 51.095 13.6158 50.201 14.5691C48.6077 16.2684 50.5659 19.7551 52.3774 20.6167C51.2701 27.4367 44.3452 25.7475 45.6343 17.2029C47.8895 13.0153 49.6046 6.78844 49.2983 3.02933C49.1901 1.69822 48.2061 -0.0848886 45.9806 0.00333359C41.7006 0.172889 41.3561 10.2796 41.8579 17.1091C40.4481 23.1493 35.7203 30.6924 36.3346 15.582C36.3952 14.522 36.4615 14.1196 35.933 13.7227C35.537 13.4142 34.6366 13.5627 34.1443 13.5749C33.5461 13.5989 33.3961 13.9489 33.2639 14.478C32.9559 15.8442 32.9006 17.1687 32.8566 18.9758C32.8277 19.8211 32.7599 20.2155 32.4343 21.3682C32.1092 22.5207 30.2544 24.6271 29.2388 24.2749C27.8299 23.7904 28.2921 19.8131 28.5561 17.0804C28.7761 14.9209 28.0717 13.9511 26.2668 13.5984C25.2101 13.3782 24.5681 13.412 23.4677 13.0651C22.427 12.7371 22.1917 10.7687 19.9721 11.4247C18.7581 11.7838 19.5386 14.356 19.2468 16.2624C17.8124 25.6404 14.8277 25.898 13.443 21.3424C19.6792 6.06889 15.247 0.0475558 12.6526 0.0475558C9.95037 0.0475558 6.86148 1.90889 8.16948 13.8182C7.53348 13.6327 7.33792 13.5327 6.6417 13.5327C2.70415 13.5327 0.0214844 16.7158 0.0214844 20.6424C0.0214844 24.5691 2.70437 27.7524 6.64192 27.7524C8.96637 27.7524 10.5984 26.6953 11.8344 25.06C12.6408 26.2149 13.6228 27.7702 15.4186 27.7002C20.7712 27.4918 22.3279 16.512 22.5117 15.8995C23.0839 15.9878 23.6252 16.1547 24.1537 16.2429C25.0341 16.3751 25.0981 16.7235 25.0781 17.6091C24.8448 25.0767 26.2228 27.6913 29.3486 27.6913C31.0901 27.6913 32.6423 25.9802 33.7117 24.7567C34.5103 26.4051 35.783 27.6409 37.4903 27.6911C41.6275 27.794 43.2115 21.2 43.067 22.0678C42.9537 22.7487 44.4092 27.654 48.6683 27.6718C53.9441 27.694 54.9248 21.8922 55.0417 20.9204C55.0563 20.7271 55.0628 20.7471 55.0417 20.9204L55.0377 20.9793C56.7126 20.6678 57.5768 19.7698 57.5768 19.7698C57.5768 19.7698 58.9217 27.762 63.9034 27.672C69.0768 27.5782 70.0523 22.3338 70.1803 21.3111C70.1972 21.0684 70.2072 21.0969 70.1803 21.3111C70.1796 21.3211 70.179 21.3311 70.1783 21.3411C72.1679 20.6173 72.6912 19.8909 72.6912 19.8909C72.6912 19.8909 73.7601 27.7242 79.0179 27.7927C83.7032 27.854 85.4396 23.056 85.4499 21.0478C86.2401 21.0562 87.7019 20.5789 87.6676 20.5518C87.6676 20.5518 89.3839 27.4007 94.1765 27.7524C96.4268 27.9175 98.1147 26.4862 99.077 25.8333C101.338 27.6647 108.868 30.0038 113.623 21.9427C114.294 20.7858 112.851 19.4191 112.598 19.2407ZM6.45192 25.0933C4.15459 25.0933 2.68148 22.9691 2.68148 20.6787C2.68148 18.3884 4.0337 16.2642 6.33104 16.2642C7.36481 16.2642 7.93992 16.378 8.74503 17.0782C8.89103 17.6535 9.30481 18.9807 9.50614 19.5833C9.77592 20.3898 10.0968 21.0762 10.4204 21.8233C9.95814 23.7395 8.44281 25.0933 6.45192 25.0933ZM12.0501 17.1455C11.9546 16.9933 11.9746 17.0869 11.8677 16.9431C11.4466 15.7976 10.635 13.2407 10.541 10.3364C10.4348 7.05111 10.9824 3.20022 12.5966 3.20022C13.6904 3.20022 14.8528 11.0047 12.0499 17.1455H12.0501ZM44.397 13.7224C44.1379 11.7729 44.1243 3.08178 46.2108 3.32111C47.3628 3.78778 45.4803 11.9889 44.397 13.7224ZM59.6323 13.7224C59.3732 11.7729 59.3597 3.08178 61.4461 3.32111C62.5981 3.78778 60.7157 11.9889 59.6323 13.7224ZM74.7468 13.8436C74.4874 11.8938 74.4741 3.20267 76.5603 3.442C77.7123 3.90867 75.8299 12.11 74.7468 13.8436ZM91.433 2.81244C93.3405 2.61467 93.2619 10.9449 89.433 16.204C88.9392 14.3031 88.1821 3.46511 91.433 2.81222V2.81244ZM99.4507 20.7373C98.8381 17.6424 100.421 15.6098 102.053 15.3869C102.624 15.2958 103.45 15.6653 103.615 16.3562C103.886 17.6582 103.576 19.5896 99.9232 22.04C99.9285 22.0609 99.5874 21.4267 99.451 20.7373H99.4507Z" fill="#A5ACB5"/>
</g>
<defs>
<clipPath id="clip0_421_1809">
<rect width="113.821" height="28" fill="white"/>
</clipPath>
</defs>
</svg>
