<svg width="16" height="16" viewBox="0 0 16 16" fill="none" xmlns="http://www.w3.org/2000/svg">
<path fill-rule="evenodd" clip-rule="evenodd" d="M15.8842 7.99652C15.8842 3.64042 12.3529 0.109093 7.9968 0.109093C3.6407 0.109093 0.109375 3.64042 0.109375 7.99652C0.109375 12.3526 3.6407 15.8839 7.9968 15.8839C12.3529 15.8839 15.8842 12.3526 15.8842 7.99652ZM7.9968 15.8839C7.46633 15.8839 6.94825 15.8312 6.44712 15.7313V9.7257H5.16077V7.58127H6.44712V6.294C6.44712 4.54457 7.17332 3.50444 9.23687 3.50444H10.9548V5.64904H9.88095C9.07764 5.64904 9.02452 5.94856 9.02452 6.50782L9.02163 7.58111H10.9669L10.7392 9.72534H9.02163V15.8177C8.6818 15.8618 8.33948 15.884 7.9968 15.8839Z" fill="#121314"/>
</svg>
