<svg width="16" height="16" viewBox="0 0 16 16" fill="none" xmlns="http://www.w3.org/2000/svg">
<path d="M0 2.02149C0 1.50801 0.180185 1.0844 0.540541 0.750661C0.900896 0.416902 1.36937 0.250031 1.94595 0.250031C2.51223 0.250031 2.97039 0.41433 3.32046 0.742959C3.68082 1.08185 3.861 1.52342 3.861 2.0677C3.861 2.56063 3.68598 2.97139 3.33591 3.30002C2.97555 3.63891 2.50193 3.80836 1.91506 3.80836H1.89961C1.33333 3.80836 0.875166 3.63891 0.525096 3.30002C0.175027 2.96114 0 2.53495 0 2.02149ZM0.200772 15.5V5.21012H3.62934V15.5H0.200772ZM5.52896 15.5H8.95753V9.7543C8.95753 9.39487 8.99872 9.11759 9.08108 8.92249C9.22522 8.57332 9.44401 8.27808 9.73745 8.03676C10.0309 7.79542 10.399 7.67476 10.8417 7.67476C11.9949 7.67476 12.5714 8.45009 12.5714 10.0008V15.5H16V9.60026C16 8.0804 15.6396 6.92767 14.9189 6.14206C14.1982 5.35646 13.2458 4.96366 12.0618 4.96366C10.7336 4.96366 9.69884 5.53361 8.95753 6.6735V6.70431H8.94208L8.95753 6.6735V5.21012H5.52896C5.54954 5.53873 5.55984 6.56053 5.55984 8.27552C5.55984 9.99049 5.54954 12.3986 5.52896 15.5Z" fill="#121314"/>
</svg>
