<svg width="129" height="34" viewBox="0 0 129 34" fill="none" xmlns="http://www.w3.org/2000/svg">
<g clip-path="url(#clip0_3022_3030)">
<path d="M0.0175781 28.48H14.1174V23.8506H5.12106V6.19019H0.0175781V28.48ZM21.256 28.48V13.1273H16.153V28.48H21.256ZM18.7049 11.0315C20.4841 11.0315 21.5918 9.85247 21.5918 8.37829C21.5588 6.87199 20.4841 5.72644 18.7388 5.72644C16.9931 5.72644 15.8515 6.87244 15.8515 8.37829C15.8515 9.85247 16.9592 11.0315 18.6715 11.0315H18.7049ZM23.6251 28.48H28.7282V19.906C28.7282 19.4472 28.7612 18.9883 28.8963 18.6615C29.2646 17.7447 30.1043 16.7949 31.5142 16.7949C33.3612 16.7949 34.1001 18.2031 34.1001 20.2659V28.4796H39.2022V19.6768C39.2022 14.9609 36.6846 12.7665 33.3269 12.7665C30.5742 12.7665 29.3654 14.3054 28.6938 15.3537H28.7282V13.1273H23.6251C23.6925 14.568 23.6251 28.48 23.6251 28.48ZM46.4015 6.19019H41.2985V28.48H46.4015V23.5023L47.6768 21.8966L51.6722 28.48H57.9498L51.2361 18.9495L57.1106 12.466H50.9677C50.9677 12.466 46.7712 18.2664 46.4015 18.9549V6.19019Z" fill="#9AA1A6"/>
<path d="M71.5957 22.0758C71.663 21.6816 71.7638 20.9254 71.7638 20.0701C71.7638 16.1015 69.7491 12.0722 64.445 12.0722C58.7712 12.0722 56.1523 16.5594 56.1523 20.6293C56.1523 25.6628 59.342 28.806 64.9145 28.806C67.1307 28.806 69.1779 28.4796 70.8572 27.7915L70.1857 24.4213C68.8087 24.8779 67.3987 25.1067 65.6534 25.1067C63.27 25.1067 61.1889 24.1279 61.0208 22.0428L71.5957 22.0749V22.0758ZM60.9874 18.6236C61.1216 17.3135 61.9952 15.3804 64.177 15.3804C66.4931 15.3804 67.0308 17.4441 67.0308 18.6236H60.9878H60.9874ZM84.3595 6.19014V13.9062H84.2922C83.5533 12.8262 82.0091 12.1056 79.9623 12.1056C76.0338 12.1056 72.5762 15.2493 72.6092 20.6199C72.6092 25.5981 75.732 28.8403 79.6257 28.8403C81.7411 28.8403 83.7548 27.9226 84.7626 26.1542H84.8629L85.0649 28.48H89.5967C89.5299 27.3991 89.4621 25.5325 89.4621 23.6985V6.1897H84.359L84.3595 6.19014ZM84.3595 21.3735C84.3595 21.7659 84.326 22.1597 84.2583 22.4861C83.9573 23.8952 82.7484 24.8766 81.2711 24.8766C79.1566 24.8766 77.7796 23.1741 77.7796 20.4888C77.7796 17.9676 78.9555 15.9369 81.305 15.9369C82.8826 15.9369 83.9903 17.0174 84.2926 18.3596C84.3595 18.6552 84.3595 18.983 84.3595 19.2773V21.3731V21.3735Z" fill="#9AA1A6"/>
<path fill-rule="evenodd" clip-rule="evenodd" d="M97.0918 0C95.7131 0 94.5947 1.09115 94.5947 2.43558V31.5653C94.5947 32.9098 95.7131 34 97.0918 34H125.884C127.263 34 128.381 32.9098 128.381 31.5649V2.43558C128.381 1.09115 127.263 0 125.884 0H97.0918ZM104.836 13.1085V28.4613H99.7334V13.1085H104.836ZM105.173 8.36044C105.173 9.83374 104.065 11.0127 102.286 11.0127H102.285H102.252C100.54 11.0127 99.4324 9.83374 99.4324 8.36044C99.4324 6.8537 100.573 5.7077 102.32 5.7077C104.065 5.7077 105.139 6.8537 105.173 8.36044ZM112.763 28.4613H107.661C107.661 28.3708 107.727 14.5446 107.661 13.109H112.764V15.2824C113.442 14.2364 114.656 12.7487 117.363 12.7487C120.72 12.7487 123.237 14.943 123.237 19.6586V28.4613H118.135V20.2489C118.135 18.1848 117.396 16.7771 115.55 16.7771C114.14 16.7771 113.3 17.7264 112.931 18.6437C112.797 18.971 112.763 19.4302 112.763 19.8886V28.4613ZM107.661 28.4618V28.4613V28.4618Z" fill="#9AA1A6"/>
</g>
<defs>
<clipPath id="clip0_3022_3030">
<rect width="128.399" height="34" fill="white"/>
</clipPath>
</defs>
</svg>
