<svg width="129" height="34" viewBox="0 0 129 34" fill="none" xmlns="http://www.w3.org/2000/svg">
<g clip-path="url(#clip0_421_1764)">
<path d="M94.5942 2.43558C94.5942 1.09115 95.7126 0 97.0913 0H125.883C127.262 0 128.38 1.09115 128.38 2.43558V31.5649C128.38 32.9098 127.262 34 125.883 34H97.0913C95.7126 34 94.5942 32.9098 94.5942 31.5653V2.43513V2.43558Z" fill="#006699"/>
<path d="M0.0175781 28.48H14.1174V23.8505H5.12106V6.19016H0.0175781V28.48ZM21.256 28.48V13.1272H16.153V28.48H21.256ZM18.7049 11.0314C20.4841 11.0314 21.5918 9.85244 21.5918 8.37826C21.5588 6.87196 20.4841 5.72641 18.7388 5.72641C16.9931 5.72641 15.8515 6.87241 15.8515 8.37826C15.8515 9.85244 16.9592 11.0314 18.6715 11.0314H18.7049ZM23.6251 28.48H28.7282V19.906C28.7282 19.4472 28.7612 18.9883 28.8963 18.6615C29.2646 17.7447 30.1043 16.7949 31.5142 16.7949C33.3612 16.7949 34.1001 18.2031 34.1001 20.2659V28.4796H39.2022V19.6768C39.2022 14.9608 36.6846 12.7665 33.3269 12.7665C30.5742 12.7665 29.3654 14.3053 28.6938 15.3537H28.7282V13.1272H23.6251C23.6925 14.568 23.6251 28.48 23.6251 28.48ZM46.4015 6.19016H41.2985V28.48H46.4015V23.5023L47.6768 21.8966L51.6722 28.48H57.9498L51.2361 18.9495L57.1106 12.4659H50.9677C50.9677 12.4659 46.7712 18.2664 46.4015 18.9549V6.19016Z" fill="black"/>
<path d="M71.5961 22.0758C71.6635 21.6817 71.7643 20.9254 71.7643 20.0701C71.7643 16.1015 69.7496 12.0722 64.4455 12.0722C58.7717 12.0722 56.1528 16.5594 56.1528 20.6293C56.1528 25.6628 59.3425 28.806 64.915 28.806C67.1312 28.806 69.1784 28.4796 70.8577 27.7916L70.1862 24.4214C68.8092 24.878 67.3992 25.1067 65.6539 25.1067C63.2705 25.1067 61.1894 24.1279 61.0213 22.0429L71.5961 22.075V22.0758ZM60.9879 18.6236C61.1221 17.3135 61.9956 15.3805 64.1775 15.3805C66.4936 15.3805 67.0313 17.4441 67.0313 18.6236H60.9883H60.9879ZM84.36 6.19017V13.9063H84.2926C83.5538 12.8263 82.0096 12.1057 79.9628 12.1057C76.0343 12.1057 72.5767 15.2494 72.6097 20.6199C72.6097 25.5981 75.7324 28.8404 79.6262 28.8404C81.7416 28.8404 83.7553 27.9227 84.7631 26.1542H84.8634L85.0654 28.4801H89.5972C89.5303 27.3992 89.4626 25.5326 89.4626 23.6985V6.18972H84.3595L84.36 6.19017ZM84.36 21.3735C84.36 21.7659 84.3265 22.1597 84.2588 22.4861C83.9578 23.8952 82.7489 24.8766 81.2716 24.8766C79.1571 24.8766 77.7801 23.1741 77.7801 20.4888C77.7801 17.9676 78.9559 15.937 81.3055 15.937C82.8831 15.937 83.9908 17.0174 84.2931 18.3596C84.36 18.6552 84.36 18.983 84.36 19.2773V21.3731V21.3735Z" fill="black"/>
<path d="M104.836 28.4613V13.1085H99.7331V28.4613H104.837H104.836ZM102.286 11.0127C104.065 11.0127 105.172 9.83373 105.172 8.36043C105.139 6.85369 104.065 5.70769 102.319 5.70769C100.573 5.70769 99.4321 6.85369 99.4321 8.36043C99.4321 9.83373 100.539 11.0127 102.252 11.0127H102.285H102.286ZM107.661 28.4613H112.763V19.8886C112.763 19.4302 112.797 18.9709 112.931 18.6436C113.3 17.7264 114.14 16.777 115.55 16.777C117.396 16.777 118.135 18.1848 118.135 20.2489V28.4613H123.237V19.6585C123.237 14.943 120.72 12.7487 117.363 12.7487C114.61 12.7487 113.401 14.2871 112.73 15.335H112.764V13.109H107.661C107.727 14.5493 107.661 28.4618 107.661 28.4618V28.4613Z" fill="white"/>
</g>
<defs>
<clipPath id="clip0_421_1764">
<rect width="128.399" height="34" fill="white"/>
</clipPath>
</defs>
</svg>
