<svg width="17" height="16" viewBox="0 0 17 16" fill="none" xmlns="http://www.w3.org/2000/svg">
<path d="M5.04461 14.5431C11.098 14.5431 14.4083 9.51844 14.4083 5.16121C14.4083 5.01851 14.4054 4.87646 14.399 4.73501C15.0431 4.26803 15.599 3.68983 16.0406 3.02752C15.4509 3.29019 14.8164 3.46698 14.1507 3.54669C14.8302 3.13848 15.3518 2.49268 15.5979 1.7229C14.9519 2.10687 14.2451 2.37756 13.5081 2.52328C12.9076 1.88235 12.0526 1.48148 11.1059 1.48148C9.28847 1.48148 7.81468 2.95817 7.81468 4.7784C7.81468 5.03719 7.8436 5.28882 7.90007 5.53026C5.16485 5.39237 2.73946 4.08026 1.11626 2.08513C0.823904 2.58834 0.670131 3.16025 0.670641 3.74245C0.670641 4.88646 1.25162 5.89635 2.13516 6.48719C1.61254 6.4712 1.10139 6.32976 0.64469 6.07477C0.644201 6.08862 0.644201 6.1021 0.644201 6.11689C0.644201 7.71378 1.77859 9.04708 3.28445 9.34919C3.00163 9.42636 2.70979 9.46538 2.41666 9.46521C2.20497 9.46521 1.99866 9.44435 1.79815 9.40578C2.21713 10.7159 3.43204 11.6693 4.87247 11.696C3.74607 12.5805 2.32716 13.1074 0.785012 13.1074C0.522673 13.1076 0.260548 13.0924 0 13.0617C1.4565 13.9971 3.18595 14.5429 5.04478 14.5429" fill="#F5F6F7"/>
</svg>
