<svg width="56" height="56" viewBox="0 0 56 56" fill="none" xmlns="http://www.w3.org/2000/svg">
<path d="M43.2392 30.6833C40.6717 30.6833 38.2658 29.6011 36.0799 27.8394L36.6122 25.3524L36.6353 25.2602C37.1093 22.6122 38.6129 18.1675 43.2392 18.1675C46.7087 18.1675 49.5309 20.977 49.5309 24.4311C49.5192 27.8738 46.6973 30.6833 43.2392 30.6833ZM43.2392 11.8234C37.329 11.8234 32.7493 15.6461 30.8874 21.9327C28.0421 17.684 25.8908 12.5834 24.6303 8.28857H18.2692V24.765C18.2692 28.012 15.6091 30.66 12.3476 30.66C9.08604 30.66 6.42621 28.012 6.42621 24.765V8.28857H0.0645257V24.765C0.0413833 31.5124 5.55822 37.0504 12.3355 37.0504C19.1132 37.0504 24.63 31.5124 24.63 24.765V22.0018C25.8673 24.5693 27.3824 27.1599 29.2214 29.4629L25.3237 47.7007H31.8353L34.6571 34.4713C37.1321 36.0487 39.9774 37.0391 43.2389 37.0391C50.2128 37.0391 55.8916 31.3512 55.8916 24.4081C55.8916 17.4766 50.2128 11.8234 43.2389 11.8234H43.2392Z" fill="#424E60"/>
</svg>
